<svg xmlns="http://www.w3.org/2000/svg" viewBox="0 0 875.12 240"><path d="M132.77,224.76c-13.16,2.31-26.56,3-40.42,4.85L50.09,105.81V234.92c-13.17,1.38-25.18,3.23-37.65,5.08V3.49H47.55l48,134.2V3.49h37.18ZM408.31,40.45H370v170c-12.47,0-24.94,0-37,.46V40.45H294.68v-37H408.31Zm60.05,47.12h50.58v37H468.36v83.84H432.1V3.49H535.34v37h-67Zm127,88.45c21,.46,42.27,2.08,62.82,3.24v36.49c-33-2.08-66.05-4.16-99.77-4.85V3.49h36.95Zm94,42.27c11.78.69,24.25,1.39,36.26,2.77V3.49H689.39ZM887.56,3.49,840.67,116l46.89,124c-13.86-1.85-27.72-4.39-41.58-6.7l-26.56-68.36-27,62.82c-13.39-2.31-26.33-3-39.72-4.85l47.58-108.32-43-111.1H797l24.25,62.13L847.14,3.49ZM178.08,203.79q-14.46-13.89-14.45-39.31V53.21q0-25.39,14.45-39.29T219.73,0q27.21,0,41.66,13.92t14.44,39.29V164.48q0,25.43-14.44,39.31c-9.63,9.28-23.13,12.46-41.66,13.92C201.65,219.14,187.7,213.07,178.08,203.79Zm60.8-37.19V51.1q0-20.87-19.15-20.86T200.58,51.1V166.6c0,13.92,6.39,21.27,19.15,20.87C231.91,187.08,238.88,180.52,238.88,166.6Z" transform="translate(-12.44)" style="fill:#d81f26"/></svg>